<?xml version="1.0" encoding="UTF-8"?>
<svg id="a" data-name="Layer 1" xmlns="http://www.w3.org/2000/svg" width="197.139" height="34.822" xmlns:xlink="http://www.w3.org/1999/xlink" viewBox="0 0 197.139 34.822">
  <defs>
    <clipPath id="d">
      <rect x="2.069" y="2.106" width="34.937" height="30.61" fill="none" stroke-width="0"/>
    </clipPath>
  </defs>
  <g id="b" data-name="Group 148804">
    <g id="c" data-name="Group 148799">
      <g clip-path="url(#d)">
        <g id="e" data-name="Group 148798">
          <g id="f" data-name="Path 167044">
            <path d="M29.102,2.115h-.1c-.082-.009-.161-.009-.243-.009h-.032c-2.908,0-5.602,1.524-7.1,4.016l-2.4,4-5.026,8.36c-.682,1.136-2.157,1.504-3.293.822-.337-.202-.619-.485-.822-.822l-3.892-6.457c-.587-1.065-1.927-1.452-2.992-.865-1.065.587-1.452,1.927-.865,2.992l.042.079,4.136,6.875c1.822,3.038,5.762,4.023,8.8,2.2.903-.542,1.658-1.297,2.2-2.2l3.2-5.318c.304-.507.962-.672,1.469-.367,0,0,0,0,0,0,.101.061.192.139.268.229l.014.017c.3.354.34.861.1,1.258l-3.188,5.3c-1.543,2.594-4.342,4.178-7.36,4.164-.777,0-1.551-.103-2.3-.308-.015-.005-.032.003-.037.019,0,0,0,0,0,.001-.002.01,0,.02.007.028,2.876,3.25,7.842,3.554,11.092.679.599-.53,1.114-1.149,1.527-1.835l3.645-6.065c.236-.388.691-.584,1.135-.489h.023c.577.111.955.669.843,1.246-.023.12-.067.235-.129.341l-3.654,6.082c-1.8,3.036-5.073,4.89-8.602,4.874-.8,0-1.597-.094-2.375-.28-.015-.004-.031.005-.036.02,0,0,0,0,0,0-.003.012.002.024.012.031,1.475,1.095,3.222,1.765,5.051,1.937,3.957.348,7.763-1.604,9.789-5.021l7.811-12.993c.781-1.298,1.191-2.785,1.184-4.3h0c0-4.419-3.485-8.052-7.9-8.238" fill="#000" stroke-width="0"/>
          </g>
          <g id="g" data-name="Path 167045">
            <path d="M9,12.465h0l1.215,2.018c.571,1.073,1.903,1.48,2.976.91s1.48-1.903.91-2.976l-3.929-6.537-1.22-2.021c-.62-1.045-1.969-1.39-3.014-.77-.977.58-1.352,1.808-.866,2.835l3.929,6.541Z" fill="#000" stroke-width="0"/>
          </g>
          <g id="h" data-name="Path 167046">
            <path d="M14.096,8.048c.654,1.024,2.014,1.325,3.038.671.936-.597,1.28-1.798.803-2.8l-.765-1.268c-.61-1.051-1.956-1.409-3.007-.8-.983.57-1.37,1.795-.893,2.827l.824,1.37Z" fill="#000" stroke-width="0"/>
          </g>
        </g>
      </g>
    </g>
    <g id="i" data-name="VECTOPUS" isolation="isolate">
      <g isolation="isolate">
        <path d="M50.418,18.723h.105l3.359-8.314h3.611v.566l-6.236,14.299h-1.596l-6.299-14.299v-.566h3.611l3.443,8.314Z" fill="#000" stroke-width="0"/>
      </g>
      <g isolation="isolate">
        <path d="M68.918,13.768h-5.438v2.078h4.997v3.339h-4.997v2.583h5.627v3.338h-9.364v-14.697h9.175v3.359Z" fill="#000" stroke-width="0"/>
        <path d="M78.914,10.241c3.045,0,6.342,1.658,6.908,5.585h-3.695c-.525-1.491-1.638-2.163-3.213-2.163-2.204,0-3.652,1.659-3.652,4.095,0,2.163,1.428,4.052,3.652,4.073,1.596,0,2.877-.798,3.275-2.373h3.695c-.545,4.158-3.842,5.795-6.971,5.795-3.736.021-7.516-2.498-7.537-7.495.021-4.997,3.801-7.517,7.537-7.517Z" fill="#000" stroke-width="0"/>
      </g>
      <g isolation="isolate">
        <path d="M87.232,13.768v-3.359h10.918v3.359h-3.591v11.338h-3.716v-11.338h-3.611Z" fill="#000" stroke-width="0"/>
        <path d="M99.474,17.778c0-10.162,15.075-10.162,15.075,0s-15.075,10.184-15.075,0ZM110.708,17.778c0-5.291-7.37-5.291-7.37,0,0,5.334,7.37,5.334,7.37,0Z" fill="#000" stroke-width="0"/>
      </g>
      <g isolation="isolate">
        <path d="M117.283,25.106v-14.697h6.467c7.033.021,7.033,10.939,0,10.939h-2.709v3.758h-3.758ZM123.728,13.768c-.882-.021-1.826,0-2.688,0v4.199h2.688c2.058,0,2.184-4.178,0-4.199Z" fill="#000" stroke-width="0"/>
        <path d="M139.688,20.151v-9.742h3.59v9.805c0,3.234-2.792,5.103-5.815,5.103-3.003,0-5.837-1.868-5.837-5.103v-9.805h3.59v9.742c0,1.197,1.155,1.785,2.247,1.785s2.226-.588,2.226-1.785Z" fill="#000" stroke-width="0"/>
      </g>
      <g isolation="isolate">
        <path d="M154.051,20.781c0-1.028-1.218-1.26-2.688-1.344-3.191-.231-5.291-1.323-5.333-4.515-.126-6.34,11.296-6.34,11.212,0h-3.569c0-1.952-3.947-1.784-4.073-.041-.084,1.112,1.008,1.344,2.331,1.49,2.918.314,5.773.756,5.773,4.43,0,6.174-11.968,6.278-11.884-.188h3.633c0,1.868,4.598,1.89,4.598.168Z" fill="#000" stroke-width="0"/>
      </g>
    </g>
    <g id="j" data-name="Group 148803">
      <g id="k" data-name="Rectangle 2616">
        <rect x="166.069" y="4.106" width="29" height="12" rx="4" ry="4" fill="#ffd00f" stroke-width="0"/>
      </g>
      <g id="l" data-name="beta" isolation="isolate">
        <g isolation="isolate">
          <path d="M172.787,8.228c.271-.145.579-.216.928-.216.414,0,.789.104,1.125.314s.602.511.796.9c.195.39.293.843.293,1.359s-.098.97-.293,1.363c-.194.393-.46.696-.796.909s-.711.319-1.125.319c-.354,0-.663-.071-.928-.212-.264-.141-.471-.328-.62-.562v.702h-1.539v-6.66h1.539v2.35c.144-.234.351-.424.62-.567ZM174.043,9.681c-.213-.219-.476-.328-.787-.328-.307,0-.565.111-.778.333-.214.222-.32.525-.32.909s.106.687.32.909c.213.222.472.333.778.333s.566-.113.783-.338c.216-.225.323-.529.323-.913s-.106-.686-.319-.905Z" fill="#000" stroke-width="0"/>
          <path d="M181.445,10.964h-3.482c.023.312.124.55.301.715s.395.248.652.248c.385,0,.651-.162.802-.486h1.638c-.084.33-.235.627-.454.891-.22.265-.494.472-.824.621-.33.15-.699.226-1.106.226-.492,0-.931-.105-1.314-.315s-.684-.51-.899-.899c-.217-.391-.324-.847-.324-1.368s.106-.979.319-1.368.512-.69.896-.9.825-.314,1.323-.314c.485,0,.918.102,1.296.306s.673.495.887.873c.213.378.319.819.319,1.323,0,.144-.009.294-.027.45ZM179.897,10.109c0-.264-.09-.474-.271-.63-.18-.156-.404-.234-.675-.234-.258,0-.476.075-.652.226-.177.149-.286.363-.328.639h1.926Z" fill="#000" stroke-width="0"/>
          <path d="M185.081,11.801v1.305h-.782c-.559,0-.993-.137-1.306-.409-.312-.273-.468-.719-.468-1.337v-1.998h-.612v-1.278h.612v-1.224h1.539v1.224h1.008v1.278h-1.008v2.017c0,.149.036.258.108.323.071.066.191.1.359.1h.549Z" fill="#000" stroke-width="0"/>
          <path d="M185.923,9.227c.194-.39.46-.69.796-.9s.711-.314,1.125-.314c.354,0,.665.071.932.216.268.144.473.333.617.567v-.712h1.539v5.022h-1.539v-.711c-.15.234-.359.423-.626.567-.267.144-.577.216-.932.216-.408,0-.78-.106-1.116-.319s-.602-.517-.796-.909c-.195-.394-.293-.848-.293-1.363s.098-.97.293-1.359ZM189.072,9.686c-.213-.222-.472-.333-.778-.333s-.565.109-.778.328c-.213.22-.319.521-.319.905s.106.688.319.913.473.338.778.338.565-.111.778-.333c.213-.223.32-.525.32-.909s-.107-.688-.32-.909Z" fill="#000" stroke-width="0"/>
        </g>
      </g>
    </g>
  </g>
</svg>